HIERARCHY
ROOT Hips
{
	OFFSET 0.000000 0.000000 0.000000 
	CHANNELS 6 Xposition Yposition Zposition Zrotation Yrotation Xrotation
	JOINT LeftUpLeg
	{
		OFFSET 1.363060 -1.794630 0.839290 
		CHANNELS 3 Zrotation Yrotation Xrotation
		JOINT LeftLeg
		{
			OFFSET 2.448110 -6.726130 0.000000 
			CHANNELS 3 Zrotation Yrotation Xrotation
			JOINT LeftFoot
			{
				OFFSET 2.562200 -7.039590 0.000000 
				CHANNELS 3 Zrotation Yrotation Xrotation
				JOINT LeftToeBase
				{
					OFFSET 0.157640 -0.433110 2.322550 
					CHANNELS 3 Zrotation Yrotation Xrotation
					End Site
					{
						OFFSET 0.000000 0.000000 0.000000 
					}
				}
			}
		}
	}
	JOINT RightUpLeg
	{
		OFFSET -1.305520 -1.794630 0.839290 
		CHANNELS 3 Zrotation Yrotation Xrotation
		JOINT RightLeg
		{
			OFFSET -2.542530 -6.985550 0.000000 
			CHANNELS 3 Zrotation Yrotation Xrotation
			JOINT RightFoot
			{
				OFFSET -2.568260 -7.056230 0.000000 
				CHANNELS 3 Zrotation Yrotation Xrotation
				JOINT RightToeBase
				{
					OFFSET -0.164730 -0.452590 2.363150 
					CHANNELS 3 Zrotation Yrotation Xrotation
					End Site
					{
						OFFSET 0.000000 0.000000 0.000000 
					}
				}
			}
		}
	}
	JOINT Spine
	{
		OFFSET 0.028270 2.035590 -0.193380 
		CHANNELS 3 Zrotation Yrotation Xrotation
		JOINT Spine1
		{
			OFFSET 0.056720 2.048850 -0.042750 
			CHANNELS 3 Zrotation Yrotation Xrotation
			JOINT Neck1
			{
				OFFSET -0.054170 1.746240 0.172020 
				CHANNELS 3 Zrotation Yrotation Xrotation
				JOINT Head
				{
					OFFSET 0.104070 1.761360 -0.123970 
					CHANNELS 3 Zrotation Yrotation Xrotation
					End Site
					{
						OFFSET 0.000000 0.000000 0.000000 
					}
				}
			}
			JOINT LeftArm
			{
				OFFSET 3.362410 1.200890 -0.311210 
				CHANNELS 3 Zrotation Yrotation Xrotation
				JOINT LeftForeArm
				{
					OFFSET 4.983000 -0.000000 -0.000000 
					CHANNELS 3 Zrotation Yrotation Xrotation
					JOINT LeftHand
					{
						OFFSET 3.483560 -0.000000 -0.000000 
						CHANNELS 3 Zrotation Yrotation Xrotation
						JOINT LeftHandIndex1
						{
							OFFSET 0.715260 -0.000000 -0.000000 
							CHANNELS 3 Zrotation Yrotation Xrotation
							End Site
							{
								OFFSET 0.000000 0.000000 0.000000 
							}
						}
					}
				}
			}
			JOINT RightArm
			{
				OFFSET -3.136600 1.374050 -0.404650 
				CHANNELS 3 Zrotation Yrotation Xrotation
				JOINT RightForeArm
				{
					OFFSET -5.241900 -0.000000 -0.000000 
					CHANNELS 3 Zrotation Yrotation Xrotation
					JOINT RightHand
					{
						OFFSET -3.444170 -0.000000 -0.000000 
						CHANNELS 3 Zrotation Yrotation Xrotation
						JOINT RightHandIndex1
						{
							OFFSET -0.622530 -0.000000 -0.000000 
							CHANNELS 3 Zrotation Yrotation Xrotation
							End Site
							{
								OFFSET 0.000000 0.000000 0.000000 
							}
						}
					}
				}
			}
		}
	}
}
MOTION
Frames: 13
Frame Time: 0.041667
9.363153 17.761994 -16.059633 -4.778590 -1.906102 25.200821 -31.147335 -16.537625 -43.891750 5.625868 18.525676 51.742046 0.908356 2.212181 23.100694 3.194300 11.003100 32.290400 8.342352 35.846088 -47.092085 -3.194300 -17.781394 43.248491 0.644688 -12.684801 7.105554 -0.254600 3.246700 -8.966400 2.121679 -1.463575 0.072146 -0.148928 -0.520473 -7.244072 1.162135 8.681050 -4.378827 -0.586700 4.083000 -1.598100 -92.611580 -27.288554 42.686232 100.082856 -54.459507 -72.111022 0.788224 -1.011139 64.498777 -7.125000 0.000000 0.000000 71.904679 34.617966 41.465191 -109.234017 49.201934 -78.824770 -0.205615 -0.598633 16.588158 7.125000 0.000000 0.000000 
9.273389 17.741187 -15.896445 -5.013781 -0.448382 25.481570 -29.919095 -17.036653 -46.561185 6.784610 19.569526 55.304674 1.104047 2.591331 25.009073 2.686400 10.169200 29.526500 9.576867 35.878960 -46.212481 -3.211435 -17.694297 43.261723 0.641155 -13.837199 8.744419 -0.418300 4.151400 -11.503000 2.152437 -1.298010 0.046491 -0.256929 -0.445794 -6.903573 1.671184 8.310212 -3.852604 -0.306500 3.948900 -1.417600 -92.716615 -27.517976 43.240622 99.478152 -54.467741 -71.574728 0.776868 -1.017474 64.283276 -7.125000 0.000000 0.000000 71.244974 34.477896 41.104960 -108.515563 49.283836 -78.103354 -0.199291 -0.584886 16.732357 7.125000 0.000000 0.000000 
9.189943 17.718311 -15.721274 -5.615869 1.050485 25.418021 -28.407908 -17.248463 -48.922925 7.954025 20.462623 58.827607 1.189146 0.894009 26.055322 1.579600 7.929200 22.499100 12.184979 35.216960 -44.586512 -3.274366 -17.602209 43.516772 0.694098 -14.717988 9.546536 -1.109000 6.690600 -18.801900 2.230775 -1.082397 -0.037763 -0.293283 -0.351892 -6.958816 2.223749 7.984655 -3.271745 0.010100 3.842400 -1.228400 -92.948097 -27.383087 43.608050 98.935081 -54.482386 -71.104206 0.777240 -1.020828 64.626619 -7.125000 0.000000 0.000000 70.887998 33.839265 40.881507 -108.195440 49.349434 -77.768762 -0.188971 -0.582972 17.028708 7.125000 0.000000 0.000000 
9.103774 17.699029 -15.550678 -6.415820 2.749449 25.209290 -26.825071 -17.349442 -51.136507 9.000520 21.214145 61.918065 1.051638 -0.145387 25.357332 0.801500 5.714100 15.957200 15.115397 34.398819 -42.746194 -3.249965 -17.426019 43.524143 1.034872 -16.668929 8.326373 -1.602500 7.983700 -22.664500 2.370373 -1.003117 -0.094717 -0.155979 -0.325323 -6.947175 2.662552 7.716247 -2.663841 0.245800 3.745600 -0.931600 -92.986903 -27.363760 43.697662 98.755763 -54.481699 -70.944308 0.771169 -1.014972 65.273797 -7.125000 0.000000 0.000000 70.770329 33.500049 40.902467 -107.872362 49.407709 -77.467729 -0.175040 -0.574882 17.418666 7.125000 0.000000 0.000000 
9.015970 17.684213 -15.398166 -7.183090 4.591219 24.970557 -25.345148 -17.594178 -53.184243 9.813520 21.829980 64.233823 0.776632 1.426992 23.043438 0.435300 4.233600 11.734800 17.487417 33.813636 -41.067483 -3.102323 -17.131024 43.068559 1.316842 -18.145217 7.292472 -1.759000 8.345000 -23.767000 2.472430 -0.944382 -0.134446 -0.216082 -0.307514 -6.923679 2.950534 7.287888 -2.312366 0.352600 3.549900 -0.787300 -92.883511 -27.293957 44.011012 98.748181 -54.485134 -70.947272 0.770857 -1.012642 65.820332 -7.125000 0.000000 0.000000 70.939736 33.337175 40.822978 -107.537786 49.470797 -77.150479 -0.166713 -0.560740 17.935298 7.125000 0.000000 0.000000 
8.945488 17.685521 -15.244238 -7.498312 6.256463 24.344424 -24.530099 -18.044677 -54.232667 10.234190 22.157155 65.432347 0.491617 3.044125 20.482392 0.177700 2.715400 7.487300 19.312585 32.964697 -38.936782 -2.913485 -16.691348 42.306518 1.308664 -18.163612 7.994478 -1.671700 8.145800 -23.157800 2.510735 -0.886730 -0.140357 -0.298982 -0.284808 -7.030165 3.186155 6.753334 -2.153379 0.460700 3.301400 -0.716900 -93.090041 -27.089472 44.686799 98.711930 -54.511237 -70.936664 0.772592 -1.018218 66.351723 -7.125000 0.000000 0.000000 71.189212 32.912546 40.487917 -107.698186 49.489846 -77.310069 -0.166156 -0.560717 18.335724 7.125000 0.000000 0.000000 
8.887860 17.700445 -15.088893 -7.536179 7.750188 23.366995 -24.131436 -18.614761 -54.483121 10.249495 22.222839 65.518366 0.313337 3.445280 18.645834 0.134300 2.361900 6.507000 21.119138 31.538658 -36.511979 -2.813580 -16.259505 41.772294 1.143783 -17.276438 9.530220 -1.930600 8.720000 -24.923500 2.505575 -0.853177 -0.124295 -0.370169 -0.270758 -7.303284 3.425188 6.227835 -2.047573 0.615700 3.063600 -0.626500 -93.330374 -26.809070 45.480002 98.927327 -54.544654 -71.150051 0.770317 -1.026771 66.832541 -7.125000 0.000000 0.000000 71.480183 32.282246 40.087660 -108.253178 49.466890 -77.877445 -0.164578 -0.567996 18.512892 7.125000 0.000000 0.000000 
8.837422 17.739553 -14.940739 -7.794113 9.120929 22.392923 -23.512979 -19.097375 -54.493189 9.838018 22.097824 64.410947 0.186761 3.404554 16.972876 0.541700 4.715500 13.098900 22.940539 30.198033 -34.441993 -2.792339 -15.939233 41.567897 1.053906 -16.466087 10.256480 -2.325800 9.514000 -27.416700 2.513752 -0.672215 -0.120088 -0.469700 -0.189768 -7.670487 3.569437 5.656218 -1.971456 0.733200 2.798700 -0.547000 -93.358006 -26.617493 46.338739 99.161242 -54.558923 -71.388379 0.778399 -1.038776 66.971805 -7.125000 0.000000 0.000000 71.633229 31.392250 39.638519 -109.098215 49.413806 -78.748298 -0.163526 -0.573043 18.407964 7.125000 0.000000 0.000000 
8.785786 17.733998 -14.787464 -8.126350 10.336648 21.711184 -22.808689 -19.726188 -54.647251 9.127452 21.846982 62.504412 0.096706 2.313569 14.938115 1.014200 6.407300 17.970800 24.291062 29.404480 -33.301601 -2.927812 -15.911009 42.038420 1.134714 -16.259609 9.496968 -2.289900 9.445400 -27.198700 2.519134 -0.405427 -0.101094 -0.621054 -0.062175 -7.872514 3.552885 5.123513 -2.094009 0.742000 2.539500 -0.641500 -93.287783 -26.537404 47.243615 99.133958 -54.566968 -71.391345 0.781907 -1.051404 66.955562 -7.125000 0.000000 0.000000 71.810394 30.328571 39.124235 -110.243138 49.329586 -79.880537 -0.165880 -0.588021 18.094396 7.125000 0.000000 0.000000 
8.743410 17.747833 -14.621117 -7.815373 11.421842 21.359788 -23.023374 -20.510560 -54.310847 8.063952 21.331029 59.597060 0.077579 0.708640 12.993172 0.954500 6.221400 17.428100 24.528455 28.732476 -32.674855 -3.160536 -16.025556 42.809885 1.167454 -15.900694 9.037185 -2.212200 9.294800 -26.721900 2.478824 -0.316513 -0.064988 -0.605985 -0.002187 -7.977356 3.477196 4.740403 -2.468589 0.689400 2.343700 -0.869900 -93.109836 -26.333807 47.851148 99.215634 -54.573809 -71.485557 0.783806 -1.060142 67.055671 -7.125000 0.000000 0.000000 72.003410 29.531279 38.580940 -111.523602 49.185390 -81.063162 -0.184745 -0.628441 17.634098 7.125000 0.000000 0.000000 
8.701033 17.745000 -14.444203 -6.903493 12.139259 21.545684 -24.082775 -21.076876 -53.956466 6.846821 20.653817 56.176323 0.095528 -0.291466 11.413371 0.717000 5.411000 15.084500 23.721027 28.378952 -32.835925 -3.514532 -16.331481 43.953879 1.001075 -14.849513 9.976302 -2.317400 9.498200 -27.366400 2.381320 -0.259199 -0.032395 -0.381086 0.058005 -7.902668 3.584885 4.342832 -2.806486 0.769500 2.157800 -1.033600 -92.805226 -26.228575 48.245001 99.558527 -54.568707 -71.808998 0.800333 -1.061275 66.952835 -7.125000 0.000000 0.000000 71.991221 29.123361 37.960058 -112.611193 49.021160 -82.002147 -0.218525 -0.673443 16.935909 7.125000 0.000000 0.000000 
8.667153 17.766134 -14.258356 -6.308389 12.472449 22.157143 -24.849257 -21.141549 -53.681117 5.507978 19.803730 52.235771 0.168881 -1.106916 10.634248 0.363400 3.872700 10.718800 22.884211 28.487429 -33.724090 -3.882794 -16.755135 45.229186 0.799471 -13.518476 10.792453 -2.258800 9.385600 -27.009200 2.289241 -0.041782 -0.001117 -0.158046 0.193964 -7.538913 3.784028 3.996006 -2.979693 0.919800 2.008400 -1.144400 -92.461753 -26.745117 48.595309 99.509897 -54.535096 -71.766184 0.812772 -1.052719 66.455039 -7.125000 0.000000 0.000000 71.907750 29.002013 37.377204 -113.057734 48.958343 -82.382208 -0.227493 -0.694058 16.376728 7.125000 0.000000 0.000000 
8.640900 17.790863 -14.067389 -6.280799 12.902512 22.642052 -24.863907 -21.172847 -53.219278 4.231252 18.845192 48.236420 0.281663 -1.315653 11.142934 0.268300 3.332300 9.205400 22.675790 28.420968 -34.947954 -4.303838 -17.258220 46.759266 0.542811 -11.487062 11.657835 -2.388100 9.631500 -27.791400 2.264218 0.199271 0.038030 0.013423 0.331127 -7.116933 3.912653 3.797267 -2.981395 1.017100 1.925900 -1.168800 -92.236829 -27.410504 48.803437 98.856765 -54.484798 -71.183935 0.826039 -1.042507 65.764310 -7.125000 0.000000 0.000000 71.732146 28.975310 36.910110 -113.114274 48.963435 -82.452049 -0.216776 -0.699044 16.146453 7.125000 0.000000 0.000000 
